<?xml version="1.0" encoding="UTF-8"?>
<!DOCTYPE svg PUBLIC "-//W3C//DTD SVG 1.1//EN" "http://www.w3.org/Graphics/SVG/1.1/DTD/svg11.dtd">
<svg xmlns="http://www.w3.org/2000/svg" version="1.1" width="512px" height="512px" style="shape-rendering:geometricPrecision; text-rendering:geometricPrecision; image-rendering:optimizeQuality; fill-rule:evenodd; clip-rule:evenodd" xmlns:xlink="http://www.w3.org/1999/xlink">
<g><path style="opacity:0.996" fill="#ff3b37" d="M 284.5,15.5 C 373.223,23.7505 437.056,67.7505 476,147.5C 503.66,210.684 503.327,273.684 475,336.5C 470.973,341.061 466.473,341.561 461.5,338C 401.252,303.293 341.085,268.46 281,233.5C 279.34,162.248 279.007,90.9151 280,19.5C 281.397,17.9297 282.897,16.5964 284.5,15.5 Z"/></g>
<g><path style="opacity:0.996" fill="#ffcf4d" d="M 217.5,47.5 C 222.765,46.5706 227.265,47.9039 231,51.5C 231.667,120.833 231.667,190.167 231,259.5C 229.833,260.667 228.667,261.833 227.5,263C 166.833,298 106.167,333 45.5,368C 40.788,369.443 36.9547,368.277 34,364.5C 2.2578,286.589 9.59113,212.589 56,142.5C 95.9773,87.5839 149.811,55.9172 217.5,47.5 Z"/></g>
<g><path style="opacity:0.994" fill="#3abdff" d="M 232.5,274.5 C 237.597,274.543 242.264,276.043 246.5,279C 305.833,313.333 365.167,347.667 424.5,382C 428.788,385.771 429.621,390.271 427,395.5C 365.144,478.461 283.311,509.627 181.5,489C 125.354,472.175 81.1876,439.342 49,390.5C 48.1834,387.036 48.5167,383.702 50,380.5C 110.978,345.266 171.811,309.933 232.5,274.5 Z"/></g>
</svg>
